<svg width="430" height="932" viewBox="0 0 430 932" fill="none" xmlns="http://www.w3.org/2000/svg">
<rect width="430" height="932" rx="50" fill="url(#paint0_linear_1_2)"/>
<path d="M149.156 393.872H148.628C146.017 393.872 143.979 394.532 142.512 395.852C141.075 397.143 140.356 399.445 140.356 402.76C140.356 403.845 140.459 404.608 140.664 405.048C140.869 405.459 140.972 405.693 140.972 405.752C139.388 405.752 138.2 405.429 137.408 404.784C136.645 404.109 136.264 403.009 136.264 401.484C136.264 399.401 136.777 397.509 137.804 395.808C138.831 394.077 140.459 392.684 142.688 391.628C144.947 390.572 147.807 390.044 151.268 390.044C153.204 390.044 155.287 390.22 157.516 390.572C159.393 390.895 161.065 391.056 162.532 391.056C164.409 391.056 166.111 390.748 167.636 390.132C167.577 392.039 167.093 393.447 166.184 394.356C165.275 395.265 163.925 395.72 162.136 395.72C161.197 395.72 160.259 395.647 159.32 395.5C158.381 395.353 157.047 395.104 155.316 394.752L149.244 423H142.908L149.156 393.872ZM160.176 401H166.512L165.94 403.728C166.937 402.848 167.832 402.173 168.624 401.704C169.445 401.235 170.325 401 171.264 401C172.202 401 172.936 401.323 173.464 401.968C174.021 402.613 174.3 403.391 174.3 404.3C174.3 405.151 174.021 405.899 173.464 406.544C172.906 407.189 172.129 407.512 171.132 407.512C170.486 407.512 170.046 407.365 169.812 407.072C169.606 406.749 169.445 406.295 169.328 405.708C169.24 405.327 169.152 405.048 169.064 404.872C168.976 404.696 168.814 404.608 168.58 404.608C167.964 404.608 167.436 404.74 166.996 405.004C166.585 405.239 166.042 405.664 165.368 406.28L161.848 423H155.512L160.176 401ZM179.007 423.264C177.335 423.264 175.941 422.692 174.827 421.548C173.712 420.404 173.155 418.615 173.155 416.18C173.155 414.009 173.58 411.736 174.431 409.36C175.311 406.955 176.601 404.931 178.303 403.288C180.033 401.616 182.087 400.78 184.463 400.78C185.665 400.78 186.56 400.985 187.147 401.396C187.733 401.807 188.027 402.349 188.027 403.024V403.332L188.511 401H194.847L191.679 415.96C191.561 416.4 191.503 416.869 191.503 417.368C191.503 418.629 192.104 419.26 193.307 419.26C194.128 419.26 194.832 418.879 195.419 418.116C196.035 417.353 196.519 416.356 196.871 415.124H198.719C197.633 418.292 196.284 420.448 194.671 421.592C193.087 422.707 191.488 423.264 189.875 423.264C188.643 423.264 187.645 422.927 186.883 422.252C186.149 421.548 185.709 420.536 185.563 419.216C184.712 420.419 183.759 421.401 182.703 422.164C181.676 422.897 180.444 423.264 179.007 423.264ZM181.867 418.996C182.6 418.996 183.319 418.659 184.023 417.984C184.756 417.28 185.255 416.327 185.519 415.124L187.631 405.18C187.631 404.799 187.484 404.432 187.191 404.08C186.897 403.699 186.443 403.508 185.827 403.508C184.653 403.508 183.597 404.197 182.659 405.576C181.72 406.925 180.987 408.568 180.459 410.504C179.931 412.411 179.667 414.097 179.667 415.564C179.667 417.031 179.872 417.969 180.283 418.38C180.723 418.791 181.251 418.996 181.867 418.996ZM201.903 423.264C200.201 423.264 198.867 422.839 197.899 421.988C196.96 421.108 196.491 419.803 196.491 418.072C196.491 417.368 196.564 416.664 196.711 415.96L199.879 401H206.215L203.047 415.96C202.9 416.693 202.827 417.221 202.827 417.544C202.827 418.512 203.325 418.996 204.323 418.996C205.672 418.996 206.919 418.145 208.063 416.444C209.236 414.743 210.175 412.719 210.879 410.372C211.583 408.025 211.935 406.001 211.935 404.3C211.876 404.447 211.685 404.564 211.363 404.652C211.04 404.711 210.761 404.74 210.527 404.74C210.028 404.74 209.632 404.505 209.339 404.036C209.075 403.567 208.943 403.053 208.943 402.496C208.943 401.792 209.163 401.22 209.603 400.78C210.072 400.34 210.761 400.12 211.671 400.12C212.639 400.12 213.343 400.487 213.783 401.22C214.223 401.924 214.443 402.833 214.443 403.948C214.443 406.588 213.988 409.419 213.079 412.44C212.169 415.432 210.776 417.984 208.899 420.096C207.021 422.208 204.689 423.264 201.903 423.264ZM221.397 423.264C219.227 423.264 217.54 422.707 216.337 421.592C215.135 420.448 214.533 418.673 214.533 416.268C214.533 414.244 214.929 412.015 215.721 409.58C216.513 407.145 217.804 405.048 219.593 403.288C221.383 401.499 223.656 400.604 226.413 400.604C229.64 400.604 231.253 402.012 231.253 404.828C231.253 406.471 230.784 407.981 229.845 409.36C228.907 410.739 227.66 411.853 226.105 412.704C224.551 413.525 222.893 413.995 221.133 414.112C221.075 414.992 221.045 415.579 221.045 415.872C221.045 417.309 221.295 418.292 221.793 418.82C222.292 419.319 223.099 419.568 224.213 419.568C225.797 419.568 227.147 419.201 228.261 418.468C229.405 417.735 230.652 416.62 232.001 415.124H233.497C230.241 420.551 226.208 423.264 221.397 423.264ZM221.485 412C222.571 411.941 223.597 411.56 224.565 410.856C225.563 410.152 226.355 409.257 226.941 408.172C227.557 407.087 227.865 405.943 227.865 404.74C227.865 403.537 227.499 402.936 226.765 402.936C225.709 402.936 224.668 403.86 223.641 405.708C222.644 407.556 221.925 409.653 221.485 412ZM236.26 423.264C234.852 423.264 233.708 422.824 232.828 421.944C231.978 421.035 231.552 419.685 231.552 417.896C231.552 417.163 231.67 416.209 231.904 415.036L236.612 392.992L243.124 392.112L238.064 415.872C237.947 416.312 237.888 416.737 237.888 417.148C237.888 418.321 238.49 418.908 239.692 418.908C240.22 418.908 240.69 418.82 241.1 418.644C240.983 420.111 240.455 421.255 239.516 422.076C238.607 422.868 237.522 423.264 236.26 423.264Z" fill="white"/>
<path d="M280.75 399.032C279.726 392.551 277.313 388 274.504 388C271.694 388 269.281 392.551 268.257 399.032H280.75ZM267.728 406C267.728 407.611 267.813 409.157 267.961 410.645H281.039C281.187 409.157 281.272 407.611 281.272 406C281.272 404.389 281.187 402.843 281.039 401.355H267.961C267.813 402.843 267.728 404.389 267.728 406ZM290.645 399.032C288.626 394.104 284.54 390.294 279.493 388.755C281.216 391.208 282.401 394.902 283.022 399.032H290.645ZM269.507 388.755C264.467 390.294 260.374 394.104 258.362 399.032H265.985C266.599 394.902 267.784 391.208 269.507 388.755ZM291.4 401.355H283.305C283.453 402.879 283.538 404.44 283.538 406C283.538 407.56 283.453 409.121 283.305 410.645H291.393C291.781 409.157 292 407.611 292 406C292 404.389 291.781 402.843 291.4 401.355ZM265.469 406C265.469 404.44 265.554 402.879 265.702 401.355H257.607C257.226 402.843 257 404.389 257 406C257 407.611 257.226 409.157 257.607 410.645H265.695C265.554 409.121 265.469 407.56 265.469 406ZM268.257 412.968C269.281 419.449 271.694 424 274.504 424C277.313 424 279.726 419.449 280.75 412.968H268.257ZM279.501 423.245C284.54 421.706 288.633 417.896 290.652 412.968H283.029C282.408 417.098 281.223 420.792 279.501 423.245ZM258.362 412.968C260.381 417.896 264.467 421.706 269.514 423.245C267.791 420.792 266.606 417.098 265.985 412.968H258.362Z" fill="#F9F0F0"/>
<path d="M141.668 477.781V492H139.217V477.781H141.668ZM147.469 484.002V485.945H141.043V484.002H147.469ZM148.279 477.781V479.734H141.043V477.781H148.279ZM152.518 481.434V492H150.154V481.434H152.518ZM149.998 478.66C149.998 478.302 150.115 478.006 150.35 477.771C150.59 477.531 150.923 477.41 151.346 477.41C151.762 477.41 152.091 477.531 152.332 477.771C152.573 478.006 152.693 478.302 152.693 478.66C152.693 479.012 152.573 479.305 152.332 479.539C152.091 479.773 151.762 479.891 151.346 479.891C150.923 479.891 150.59 479.773 150.35 479.539C150.115 479.305 149.998 479.012 149.998 478.66ZM157.43 483.689V492H155.076V481.434H157.293L157.43 483.689ZM157.01 486.326L156.248 486.316C156.255 485.568 156.359 484.881 156.561 484.256C156.769 483.631 157.055 483.094 157.42 482.645C157.791 482.195 158.234 481.85 158.748 481.609C159.262 481.362 159.835 481.238 160.467 481.238C160.975 481.238 161.434 481.31 161.844 481.453C162.26 481.59 162.615 481.814 162.908 482.127C163.208 482.439 163.436 482.846 163.592 483.348C163.748 483.842 163.826 484.451 163.826 485.174V492H161.463V485.164C161.463 484.656 161.388 484.256 161.238 483.963C161.095 483.663 160.883 483.452 160.604 483.328C160.33 483.198 159.988 483.133 159.578 483.133C159.174 483.133 158.813 483.217 158.494 483.387C158.175 483.556 157.905 483.787 157.684 484.08C157.469 484.373 157.303 484.712 157.186 485.096C157.068 485.48 157.01 485.89 157.01 486.326ZM172.674 489.812V477H175.037V492H172.898L172.674 489.812ZM165.799 486.834V486.629C165.799 485.828 165.893 485.099 166.082 484.441C166.271 483.777 166.544 483.208 166.902 482.732C167.26 482.251 167.697 481.883 168.211 481.629C168.725 481.368 169.305 481.238 169.949 481.238C170.587 481.238 171.147 481.362 171.629 481.609C172.111 481.857 172.521 482.212 172.859 482.674C173.198 483.13 173.468 483.676 173.67 484.314C173.872 484.946 174.015 485.649 174.1 486.424V487.078C174.015 487.833 173.872 488.523 173.67 489.148C173.468 489.773 173.198 490.314 172.859 490.77C172.521 491.225 172.107 491.577 171.619 491.824C171.137 492.072 170.574 492.195 169.93 492.195C169.292 492.195 168.715 492.062 168.201 491.795C167.693 491.528 167.26 491.154 166.902 490.672C166.544 490.19 166.271 489.624 166.082 488.973C165.893 488.315 165.799 487.602 165.799 486.834ZM168.152 486.629V486.834C168.152 487.316 168.195 487.765 168.279 488.182C168.37 488.598 168.51 488.966 168.699 489.285C168.888 489.598 169.132 489.845 169.432 490.027C169.738 490.203 170.102 490.291 170.525 490.291C171.059 490.291 171.499 490.174 171.844 489.939C172.189 489.705 172.459 489.389 172.654 488.992C172.856 488.589 172.993 488.139 173.064 487.645V485.877C173.025 485.493 172.944 485.135 172.82 484.803C172.703 484.471 172.544 484.181 172.342 483.934C172.14 483.68 171.889 483.484 171.59 483.348C171.297 483.204 170.949 483.133 170.545 483.133C170.115 483.133 169.751 483.224 169.451 483.406C169.152 483.589 168.904 483.839 168.709 484.158C168.52 484.477 168.38 484.848 168.289 485.271C168.198 485.695 168.152 486.147 168.152 486.629ZM184.07 477.781L187.371 484.568L190.672 477.781H193.387L188.602 486.766V492H186.131V486.766L181.346 477.781H184.07ZM193.611 486.834V486.609C193.611 485.848 193.722 485.141 193.943 484.49C194.165 483.833 194.484 483.263 194.9 482.781C195.324 482.293 195.838 481.915 196.443 481.648C197.055 481.375 197.745 481.238 198.514 481.238C199.288 481.238 199.979 481.375 200.584 481.648C201.196 481.915 201.714 482.293 202.137 482.781C202.56 483.263 202.882 483.833 203.104 484.49C203.325 485.141 203.436 485.848 203.436 486.609V486.834C203.436 487.596 203.325 488.302 203.104 488.953C202.882 489.604 202.56 490.174 202.137 490.662C201.714 491.144 201.199 491.521 200.594 491.795C199.988 492.062 199.301 492.195 198.533 492.195C197.758 492.195 197.065 492.062 196.453 491.795C195.848 491.521 195.333 491.144 194.91 490.662C194.487 490.174 194.165 489.604 193.943 488.953C193.722 488.302 193.611 487.596 193.611 486.834ZM195.965 486.609V486.834C195.965 487.309 196.014 487.758 196.111 488.182C196.209 488.605 196.362 488.976 196.57 489.295C196.779 489.614 197.046 489.865 197.371 490.047C197.697 490.229 198.084 490.32 198.533 490.32C198.969 490.32 199.347 490.229 199.666 490.047C199.992 489.865 200.258 489.614 200.467 489.295C200.675 488.976 200.828 488.605 200.926 488.182C201.03 487.758 201.082 487.309 201.082 486.834V486.609C201.082 486.141 201.03 485.698 200.926 485.281C200.828 484.858 200.672 484.484 200.457 484.158C200.249 483.833 199.982 483.579 199.656 483.396C199.337 483.208 198.956 483.113 198.514 483.113C198.071 483.113 197.687 483.208 197.361 483.396C197.042 483.579 196.779 483.833 196.57 484.158C196.362 484.484 196.209 484.858 196.111 485.281C196.014 485.698 195.965 486.141 195.965 486.609ZM211.766 489.51V481.434H214.129V492H211.902L211.766 489.51ZM212.098 487.312L212.889 487.293C212.889 488.003 212.811 488.657 212.654 489.256C212.498 489.848 212.257 490.366 211.932 490.809C211.606 491.245 211.189 491.587 210.682 491.834C210.174 492.075 209.565 492.195 208.855 492.195C208.341 492.195 207.869 492.12 207.439 491.971C207.01 491.821 206.639 491.59 206.326 491.277C206.02 490.965 205.783 490.558 205.613 490.057C205.444 489.555 205.359 488.956 205.359 488.26V481.434H207.713V488.279C207.713 488.663 207.758 488.986 207.85 489.246C207.941 489.5 208.064 489.705 208.221 489.861C208.377 490.018 208.559 490.128 208.768 490.193C208.976 490.258 209.197 490.291 209.432 490.291C210.102 490.291 210.63 490.161 211.014 489.9C211.404 489.633 211.681 489.275 211.844 488.826C212.013 488.377 212.098 487.872 212.098 487.312ZM218.904 483.445V492H216.551V481.434H218.797L218.904 483.445ZM222.137 481.365L222.117 483.553C221.974 483.527 221.818 483.507 221.648 483.494C221.486 483.481 221.323 483.475 221.16 483.475C220.757 483.475 220.402 483.533 220.096 483.65C219.79 483.761 219.533 483.924 219.324 484.139C219.122 484.347 218.966 484.601 218.855 484.9C218.745 485.2 218.68 485.535 218.66 485.906L218.123 485.945C218.123 485.281 218.188 484.666 218.318 484.1C218.449 483.533 218.644 483.035 218.904 482.605C219.171 482.176 219.503 481.84 219.9 481.6C220.304 481.359 220.77 481.238 221.297 481.238C221.44 481.238 221.593 481.251 221.756 481.277C221.925 481.303 222.052 481.333 222.137 481.365ZM237.938 492H234.9L234.92 490.057H237.938C238.816 490.057 239.552 489.865 240.145 489.48C240.743 489.096 241.193 488.546 241.492 487.83C241.798 487.114 241.951 486.261 241.951 485.271V484.5C241.951 483.732 241.863 483.051 241.688 482.459C241.518 481.867 241.264 481.368 240.926 480.965C240.594 480.561 240.184 480.255 239.695 480.047C239.214 479.839 238.657 479.734 238.025 479.734H234.842V477.781H238.025C238.969 477.781 239.832 477.941 240.613 478.26C241.395 478.572 242.068 479.025 242.635 479.617C243.208 480.21 243.647 480.919 243.953 481.746C244.259 482.573 244.412 483.497 244.412 484.52V485.271C244.412 486.294 244.259 487.218 243.953 488.045C243.647 488.872 243.208 489.581 242.635 490.174C242.062 490.76 241.378 491.212 240.584 491.531C239.796 491.844 238.914 492 237.938 492ZM236.258 477.781V492H233.807V477.781H236.258ZM249.002 483.445V492H246.648V481.434H248.895L249.002 483.445ZM252.234 481.365L252.215 483.553C252.072 483.527 251.915 483.507 251.746 483.494C251.583 483.481 251.421 483.475 251.258 483.475C250.854 483.475 250.499 483.533 250.193 483.65C249.887 483.761 249.63 483.924 249.422 484.139C249.22 484.347 249.064 484.601 248.953 484.9C248.842 485.2 248.777 485.535 248.758 485.906L248.221 485.945C248.221 485.281 248.286 484.666 248.416 484.1C248.546 483.533 248.742 483.035 249.002 482.605C249.269 482.176 249.601 481.84 249.998 481.6C250.402 481.359 250.867 481.238 251.395 481.238C251.538 481.238 251.691 481.251 251.854 481.277C252.023 481.303 252.15 481.333 252.234 481.365ZM258.172 492.195C257.391 492.195 256.684 492.068 256.053 491.814C255.428 491.554 254.894 491.193 254.451 490.73C254.015 490.268 253.68 489.725 253.445 489.1C253.211 488.475 253.094 487.801 253.094 487.078V486.688C253.094 485.861 253.214 485.112 253.455 484.441C253.696 483.771 254.031 483.198 254.461 482.723C254.891 482.241 255.398 481.873 255.984 481.619C256.57 481.365 257.205 481.238 257.889 481.238C258.644 481.238 259.305 481.365 259.871 481.619C260.438 481.873 260.906 482.231 261.277 482.693C261.655 483.149 261.935 483.693 262.117 484.324C262.306 484.956 262.4 485.652 262.4 486.414V487.42H254.236V485.73H260.076V485.545C260.063 485.122 259.979 484.725 259.822 484.354C259.673 483.982 259.441 483.683 259.129 483.455C258.816 483.227 258.4 483.113 257.879 483.113C257.488 483.113 257.14 483.198 256.834 483.367C256.535 483.53 256.284 483.768 256.082 484.08C255.88 484.393 255.724 484.77 255.613 485.213C255.509 485.649 255.457 486.141 255.457 486.688V487.078C255.457 487.54 255.519 487.97 255.643 488.367C255.773 488.758 255.962 489.1 256.209 489.393C256.456 489.686 256.756 489.917 257.107 490.086C257.459 490.249 257.859 490.33 258.309 490.33C258.875 490.33 259.38 490.216 259.822 489.988C260.265 489.76 260.649 489.438 260.975 489.021L262.215 490.223C261.987 490.555 261.691 490.874 261.326 491.18C260.962 491.479 260.516 491.723 259.988 491.912C259.467 492.101 258.862 492.195 258.172 492.195ZM270.193 489.881V484.842C270.193 484.464 270.125 484.139 269.988 483.865C269.852 483.592 269.643 483.38 269.363 483.23C269.09 483.081 268.745 483.006 268.328 483.006C267.944 483.006 267.612 483.071 267.332 483.201C267.052 483.331 266.834 483.507 266.678 483.729C266.521 483.95 266.443 484.201 266.443 484.48H264.1C264.1 484.064 264.201 483.66 264.402 483.27C264.604 482.879 264.897 482.531 265.281 482.225C265.665 481.919 266.124 481.678 266.658 481.502C267.192 481.326 267.791 481.238 268.455 481.238C269.249 481.238 269.952 481.372 270.564 481.639C271.183 481.906 271.668 482.309 272.02 482.85C272.378 483.383 272.557 484.054 272.557 484.861V489.559C272.557 490.04 272.589 490.473 272.654 490.857C272.726 491.235 272.827 491.564 272.957 491.844V492H270.545C270.434 491.746 270.346 491.424 270.281 491.033C270.223 490.636 270.193 490.252 270.193 489.881ZM270.535 485.574L270.555 487.029H268.865C268.429 487.029 268.045 487.072 267.713 487.156C267.381 487.234 267.104 487.352 266.883 487.508C266.661 487.664 266.495 487.853 266.385 488.074C266.274 488.296 266.219 488.546 266.219 488.826C266.219 489.106 266.284 489.363 266.414 489.598C266.544 489.826 266.733 490.005 266.98 490.135C267.234 490.265 267.54 490.33 267.898 490.33C268.38 490.33 268.8 490.232 269.158 490.037C269.523 489.835 269.809 489.591 270.018 489.305C270.226 489.012 270.337 488.735 270.35 488.475L271.111 489.52C271.033 489.786 270.9 490.073 270.711 490.379C270.522 490.685 270.275 490.978 269.969 491.258C269.669 491.531 269.308 491.756 268.885 491.932C268.468 492.107 267.986 492.195 267.439 492.195C266.749 492.195 266.134 492.059 265.594 491.785C265.053 491.505 264.63 491.131 264.324 490.662C264.018 490.187 263.865 489.65 263.865 489.051C263.865 488.491 263.969 487.996 264.178 487.566C264.393 487.13 264.705 486.766 265.115 486.473C265.532 486.18 266.04 485.958 266.639 485.809C267.238 485.652 267.921 485.574 268.689 485.574H270.535ZM277.371 483.582V492H275.018V481.434H277.234L277.371 483.582ZM276.99 486.326L276.189 486.316C276.189 485.587 276.281 484.913 276.463 484.295C276.645 483.676 276.912 483.139 277.264 482.684C277.615 482.221 278.051 481.867 278.572 481.619C279.1 481.365 279.708 481.238 280.398 481.238C280.88 481.238 281.32 481.31 281.717 481.453C282.12 481.59 282.469 481.808 282.762 482.107C283.061 482.407 283.289 482.791 283.445 483.26C283.608 483.729 283.689 484.295 283.689 484.959V492H281.336V485.164C281.336 484.65 281.258 484.246 281.102 483.953C280.952 483.66 280.734 483.452 280.447 483.328C280.167 483.198 279.832 483.133 279.441 483.133C278.999 483.133 278.621 483.217 278.309 483.387C278.003 483.556 277.752 483.787 277.557 484.08C277.361 484.373 277.218 484.712 277.127 485.096C277.036 485.48 276.99 485.89 276.99 486.326ZM283.543 485.701L282.439 485.945C282.439 485.307 282.527 484.705 282.703 484.139C282.885 483.566 283.149 483.064 283.494 482.635C283.846 482.199 284.279 481.857 284.793 481.609C285.307 481.362 285.896 481.238 286.561 481.238C287.101 481.238 287.583 481.313 288.006 481.463C288.436 481.606 288.8 481.834 289.1 482.146C289.399 482.459 289.627 482.866 289.783 483.367C289.939 483.862 290.018 484.461 290.018 485.164V492H287.654V485.154C287.654 484.62 287.576 484.207 287.42 483.914C287.27 483.621 287.055 483.419 286.775 483.309C286.495 483.191 286.16 483.133 285.77 483.133C285.405 483.133 285.083 483.201 284.803 483.338C284.529 483.468 284.298 483.654 284.109 483.895C283.921 484.129 283.777 484.399 283.68 484.705C283.589 485.011 283.543 485.343 283.543 485.701ZM129.52 515H126.482L126.502 513.057H129.52C130.398 513.057 131.134 512.865 131.727 512.48C132.326 512.096 132.775 511.546 133.074 510.83C133.38 510.114 133.533 509.261 133.533 508.271V507.5C133.533 506.732 133.445 506.051 133.27 505.459C133.1 504.867 132.846 504.368 132.508 503.965C132.176 503.561 131.766 503.255 131.277 503.047C130.796 502.839 130.239 502.734 129.607 502.734H126.424V500.781H129.607C130.551 500.781 131.414 500.941 132.195 501.26C132.977 501.572 133.65 502.025 134.217 502.617C134.79 503.21 135.229 503.919 135.535 504.746C135.841 505.573 135.994 506.497 135.994 507.52V508.271C135.994 509.294 135.841 510.218 135.535 511.045C135.229 511.872 134.79 512.581 134.217 513.174C133.644 513.76 132.96 514.212 132.166 514.531C131.378 514.844 130.496 515 129.52 515ZM127.84 500.781V515H125.389V500.781H127.84ZM142.879 515.195C142.098 515.195 141.391 515.068 140.76 514.814C140.135 514.554 139.601 514.193 139.158 513.73C138.722 513.268 138.387 512.725 138.152 512.1C137.918 511.475 137.801 510.801 137.801 510.078V509.688C137.801 508.861 137.921 508.112 138.162 507.441C138.403 506.771 138.738 506.198 139.168 505.723C139.598 505.241 140.105 504.873 140.691 504.619C141.277 504.365 141.912 504.238 142.596 504.238C143.351 504.238 144.012 504.365 144.578 504.619C145.145 504.873 145.613 505.231 145.984 505.693C146.362 506.149 146.642 506.693 146.824 507.324C147.013 507.956 147.107 508.652 147.107 509.414V510.42H138.943V508.73H144.783V508.545C144.77 508.122 144.686 507.725 144.529 507.354C144.38 506.982 144.148 506.683 143.836 506.455C143.523 506.227 143.107 506.113 142.586 506.113C142.195 506.113 141.847 506.198 141.541 506.367C141.242 506.53 140.991 506.768 140.789 507.08C140.587 507.393 140.431 507.77 140.32 508.213C140.216 508.649 140.164 509.141 140.164 509.688V510.078C140.164 510.54 140.226 510.97 140.35 511.367C140.48 511.758 140.669 512.1 140.916 512.393C141.163 512.686 141.463 512.917 141.814 513.086C142.166 513.249 142.566 513.33 143.016 513.33C143.582 513.33 144.087 513.216 144.529 512.988C144.972 512.76 145.356 512.438 145.682 512.021L146.922 513.223C146.694 513.555 146.398 513.874 146.033 514.18C145.669 514.479 145.223 514.723 144.695 514.912C144.174 515.101 143.569 515.195 142.879 515.195ZM154.871 512.139C154.871 511.904 154.812 511.693 154.695 511.504C154.578 511.309 154.354 511.133 154.021 510.977C153.696 510.82 153.214 510.677 152.576 510.547C152.016 510.423 151.502 510.277 151.033 510.107C150.571 509.932 150.174 509.72 149.842 509.473C149.51 509.225 149.253 508.932 149.07 508.594C148.888 508.255 148.797 507.865 148.797 507.422C148.797 506.992 148.891 506.585 149.08 506.201C149.269 505.817 149.539 505.479 149.891 505.186C150.242 504.893 150.669 504.661 151.17 504.492C151.678 504.323 152.244 504.238 152.869 504.238C153.755 504.238 154.513 504.388 155.145 504.688C155.783 504.98 156.271 505.381 156.609 505.889C156.948 506.39 157.117 506.956 157.117 507.588H154.764C154.764 507.308 154.692 507.048 154.549 506.807C154.412 506.559 154.204 506.361 153.924 506.211C153.644 506.055 153.292 505.977 152.869 505.977C152.465 505.977 152.13 506.042 151.863 506.172C151.603 506.296 151.408 506.458 151.277 506.66C151.154 506.862 151.092 507.083 151.092 507.324C151.092 507.5 151.124 507.66 151.189 507.803C151.261 507.939 151.378 508.066 151.541 508.184C151.704 508.294 151.925 508.398 152.205 508.496C152.492 508.594 152.85 508.688 153.279 508.779C154.087 508.949 154.78 509.167 155.359 509.434C155.945 509.694 156.395 510.033 156.707 510.449C157.02 510.859 157.176 511.38 157.176 512.012C157.176 512.48 157.075 512.91 156.873 513.301C156.678 513.685 156.391 514.02 156.014 514.307C155.636 514.587 155.184 514.805 154.656 514.961C154.135 515.117 153.549 515.195 152.898 515.195C151.941 515.195 151.131 515.026 150.467 514.688C149.803 514.342 149.298 513.903 148.953 513.369C148.615 512.829 148.445 512.269 148.445 511.689H150.721C150.747 512.126 150.867 512.474 151.082 512.734C151.303 512.988 151.577 513.174 151.902 513.291C152.234 513.402 152.576 513.457 152.928 513.457C153.351 513.457 153.706 513.402 153.992 513.291C154.279 513.174 154.497 513.018 154.646 512.822C154.796 512.62 154.871 512.393 154.871 512.139ZM164.08 504.434V506.152H158.123V504.434H164.08ZM159.842 501.846H162.195V512.08C162.195 512.406 162.241 512.656 162.332 512.832C162.43 513.001 162.563 513.115 162.732 513.174C162.902 513.232 163.1 513.262 163.328 513.262C163.491 513.262 163.647 513.252 163.797 513.232C163.947 513.213 164.067 513.193 164.158 513.174L164.168 514.971C163.973 515.029 163.745 515.081 163.484 515.127C163.23 515.173 162.938 515.195 162.605 515.195C162.065 515.195 161.587 515.101 161.17 514.912C160.753 514.717 160.428 514.401 160.193 513.965C159.959 513.529 159.842 512.949 159.842 512.227V501.846ZM168.416 504.434V515H166.053V504.434H168.416ZM165.896 501.66C165.896 501.302 166.014 501.006 166.248 500.771C166.489 500.531 166.821 500.41 167.244 500.41C167.661 500.41 167.99 500.531 168.23 500.771C168.471 501.006 168.592 501.302 168.592 501.66C168.592 502.012 168.471 502.305 168.23 502.539C167.99 502.773 167.661 502.891 167.244 502.891C166.821 502.891 166.489 502.773 166.248 502.539C166.014 502.305 165.896 502.012 165.896 501.66ZM173.328 506.689V515H170.975V504.434H173.191L173.328 506.689ZM172.908 509.326L172.146 509.316C172.153 508.568 172.257 507.881 172.459 507.256C172.667 506.631 172.954 506.094 173.318 505.645C173.689 505.195 174.132 504.85 174.646 504.609C175.161 504.362 175.734 504.238 176.365 504.238C176.873 504.238 177.332 504.31 177.742 504.453C178.159 504.59 178.514 504.814 178.807 505.127C179.106 505.439 179.334 505.846 179.49 506.348C179.646 506.842 179.725 507.451 179.725 508.174V515H177.361V508.164C177.361 507.656 177.286 507.256 177.137 506.963C176.993 506.663 176.782 506.452 176.502 506.328C176.229 506.198 175.887 506.133 175.477 506.133C175.073 506.133 174.712 506.217 174.393 506.387C174.074 506.556 173.803 506.787 173.582 507.08C173.367 507.373 173.201 507.712 173.084 508.096C172.967 508.48 172.908 508.89 172.908 509.326ZM188.084 512.881V507.842C188.084 507.464 188.016 507.139 187.879 506.865C187.742 506.592 187.534 506.38 187.254 506.23C186.98 506.081 186.635 506.006 186.219 506.006C185.835 506.006 185.503 506.071 185.223 506.201C184.943 506.331 184.725 506.507 184.568 506.729C184.412 506.95 184.334 507.201 184.334 507.48H181.99C181.99 507.064 182.091 506.66 182.293 506.27C182.495 505.879 182.788 505.531 183.172 505.225C183.556 504.919 184.015 504.678 184.549 504.502C185.083 504.326 185.682 504.238 186.346 504.238C187.14 504.238 187.843 504.372 188.455 504.639C189.074 504.906 189.559 505.309 189.91 505.85C190.268 506.383 190.447 507.054 190.447 507.861V512.559C190.447 513.04 190.48 513.473 190.545 513.857C190.617 514.235 190.717 514.564 190.848 514.844V515H188.436C188.325 514.746 188.237 514.424 188.172 514.033C188.113 513.636 188.084 513.252 188.084 512.881ZM188.426 508.574L188.445 510.029H186.756C186.32 510.029 185.936 510.072 185.604 510.156C185.271 510.234 184.995 510.352 184.773 510.508C184.552 510.664 184.386 510.853 184.275 511.074C184.165 511.296 184.109 511.546 184.109 511.826C184.109 512.106 184.174 512.363 184.305 512.598C184.435 512.826 184.624 513.005 184.871 513.135C185.125 513.265 185.431 513.33 185.789 513.33C186.271 513.33 186.691 513.232 187.049 513.037C187.413 512.835 187.7 512.591 187.908 512.305C188.117 512.012 188.227 511.735 188.24 511.475L189.002 512.52C188.924 512.786 188.79 513.073 188.602 513.379C188.413 513.685 188.165 513.978 187.859 514.258C187.56 514.531 187.199 514.756 186.775 514.932C186.359 515.107 185.877 515.195 185.33 515.195C184.64 515.195 184.025 515.059 183.484 514.785C182.944 514.505 182.521 514.131 182.215 513.662C181.909 513.187 181.756 512.65 181.756 512.051C181.756 511.491 181.86 510.996 182.068 510.566C182.283 510.13 182.596 509.766 183.006 509.473C183.423 509.18 183.93 508.958 184.529 508.809C185.128 508.652 185.812 508.574 186.58 508.574H188.426ZM197.752 504.434V506.152H191.795V504.434H197.752ZM193.514 501.846H195.867V512.08C195.867 512.406 195.913 512.656 196.004 512.832C196.102 513.001 196.235 513.115 196.404 513.174C196.574 513.232 196.772 513.262 197 513.262C197.163 513.262 197.319 513.252 197.469 513.232C197.618 513.213 197.739 513.193 197.83 513.174L197.84 514.971C197.645 515.029 197.417 515.081 197.156 515.127C196.902 515.173 196.609 515.195 196.277 515.195C195.737 515.195 195.258 515.101 194.842 514.912C194.425 514.717 194.1 514.401 193.865 513.965C193.631 513.529 193.514 512.949 193.514 512.227V501.846ZM202.088 504.434V515H199.725V504.434H202.088ZM199.568 501.66C199.568 501.302 199.686 501.006 199.92 500.771C200.161 500.531 200.493 500.41 200.916 500.41C201.333 500.41 201.661 500.531 201.902 500.771C202.143 501.006 202.264 501.302 202.264 501.66C202.264 502.012 202.143 502.305 201.902 502.539C201.661 502.773 201.333 502.891 200.916 502.891C200.493 502.891 200.161 502.773 199.92 502.539C199.686 502.305 199.568 502.012 199.568 501.66ZM204.217 509.834V509.609C204.217 508.848 204.327 508.141 204.549 507.49C204.77 506.833 205.089 506.263 205.506 505.781C205.929 505.293 206.443 504.915 207.049 504.648C207.661 504.375 208.351 504.238 209.119 504.238C209.894 504.238 210.584 504.375 211.189 504.648C211.801 504.915 212.319 505.293 212.742 505.781C213.165 506.263 213.488 506.833 213.709 507.49C213.93 508.141 214.041 508.848 214.041 509.609V509.834C214.041 510.596 213.93 511.302 213.709 511.953C213.488 512.604 213.165 513.174 212.742 513.662C212.319 514.144 211.805 514.521 211.199 514.795C210.594 515.062 209.907 515.195 209.139 515.195C208.364 515.195 207.671 515.062 207.059 514.795C206.453 514.521 205.939 514.144 205.516 513.662C205.092 513.174 204.77 512.604 204.549 511.953C204.327 511.302 204.217 510.596 204.217 509.834ZM206.57 509.609V509.834C206.57 510.309 206.619 510.758 206.717 511.182C206.814 511.605 206.967 511.976 207.176 512.295C207.384 512.614 207.651 512.865 207.977 513.047C208.302 513.229 208.689 513.32 209.139 513.32C209.575 513.32 209.952 513.229 210.271 513.047C210.597 512.865 210.864 512.614 211.072 512.295C211.281 511.976 211.434 511.605 211.531 511.182C211.635 510.758 211.688 510.309 211.688 509.834V509.609C211.688 509.141 211.635 508.698 211.531 508.281C211.434 507.858 211.277 507.484 211.062 507.158C210.854 506.833 210.587 506.579 210.262 506.396C209.943 506.208 209.562 506.113 209.119 506.113C208.676 506.113 208.292 506.208 207.967 506.396C207.648 506.579 207.384 506.833 207.176 507.158C206.967 507.484 206.814 507.858 206.717 508.281C206.619 508.698 206.57 509.141 206.57 509.609ZM218.348 506.689V515H215.994V504.434H218.211L218.348 506.689ZM217.928 509.326L217.166 509.316C217.173 508.568 217.277 507.881 217.479 507.256C217.687 506.631 217.973 506.094 218.338 505.645C218.709 505.195 219.152 504.85 219.666 504.609C220.18 504.362 220.753 504.238 221.385 504.238C221.893 504.238 222.352 504.31 222.762 504.453C223.178 504.59 223.533 504.814 223.826 505.127C224.126 505.439 224.354 505.846 224.51 506.348C224.666 506.842 224.744 507.451 224.744 508.174V515H222.381V508.164C222.381 507.656 222.306 507.256 222.156 506.963C222.013 506.663 221.801 506.452 221.521 506.328C221.248 506.198 220.906 506.133 220.496 506.133C220.092 506.133 219.731 506.217 219.412 506.387C219.093 506.556 218.823 506.787 218.602 507.08C218.387 507.373 218.221 507.712 218.104 508.096C217.986 508.48 217.928 508.89 217.928 509.326ZM235.926 511.807L238.758 500.781H240.242L240.076 503.623L237.049 515H235.506L235.926 511.807ZM233.807 500.781L236.102 511.719L236.307 515H234.666L231.375 500.781H233.807ZM243.455 511.689L245.721 500.781H248.162L244.871 515H243.23L243.455 511.689ZM240.818 500.781L243.621 511.836L244.031 515H242.488L239.51 503.623L239.354 500.781H240.818ZM252.264 504.434V515H249.9V504.434H252.264ZM249.744 501.66C249.744 501.302 249.861 501.006 250.096 500.771C250.337 500.531 250.669 500.41 251.092 500.41C251.508 500.41 251.837 500.531 252.078 500.771C252.319 501.006 252.439 501.302 252.439 501.66C252.439 502.012 252.319 502.305 252.078 502.539C251.837 502.773 251.508 502.891 251.092 502.891C250.669 502.891 250.337 502.773 250.096 502.539C249.861 502.305 249.744 502.012 249.744 501.66ZM259.686 504.434V506.152H253.729V504.434H259.686ZM255.447 501.846H257.801V512.08C257.801 512.406 257.846 512.656 257.938 512.832C258.035 513.001 258.169 513.115 258.338 513.174C258.507 513.232 258.706 513.262 258.934 513.262C259.096 513.262 259.253 513.252 259.402 513.232C259.552 513.213 259.673 513.193 259.764 513.174L259.773 514.971C259.578 515.029 259.35 515.081 259.09 515.127C258.836 515.173 258.543 515.195 258.211 515.195C257.671 515.195 257.192 515.101 256.775 514.912C256.359 514.717 256.033 514.401 255.799 513.965C255.564 513.529 255.447 512.949 255.447 512.227V501.846ZM263.826 500V515H261.482V500H263.826ZM263.416 509.326L262.654 509.316C262.661 508.587 262.762 507.913 262.957 507.295C263.159 506.676 263.439 506.139 263.797 505.684C264.161 505.221 264.598 504.867 265.105 504.619C265.613 504.365 266.176 504.238 266.795 504.238C267.316 504.238 267.785 504.31 268.201 504.453C268.624 504.596 268.989 504.827 269.295 505.146C269.601 505.459 269.832 505.869 269.988 506.377C270.151 506.878 270.232 507.49 270.232 508.213V515H267.869V508.193C267.869 507.686 267.794 507.282 267.645 506.982C267.501 506.683 267.29 506.468 267.01 506.338C266.73 506.201 266.388 506.133 265.984 506.133C265.561 506.133 265.187 506.217 264.861 506.387C264.542 506.556 264.275 506.787 264.061 507.08C263.846 507.373 263.683 507.712 263.572 508.096C263.468 508.48 263.416 508.89 263.416 509.326ZM285.809 500.781H288.25V510.283C288.25 511.364 288.016 512.269 287.547 512.998C287.078 513.727 286.44 514.277 285.633 514.648C284.832 515.013 283.937 515.195 282.947 515.195C281.925 515.195 281.014 515.013 280.213 514.648C279.412 514.277 278.781 513.727 278.318 512.998C277.863 512.269 277.635 511.364 277.635 510.283V500.781H280.076V510.283C280.076 510.967 280.193 511.53 280.428 511.973C280.662 512.409 280.994 512.731 281.424 512.939C281.854 513.148 282.361 513.252 282.947 513.252C283.533 513.252 284.038 513.148 284.461 512.939C284.891 512.731 285.223 512.409 285.457 511.973C285.691 511.53 285.809 510.967 285.809 510.283V500.781ZM296.609 512.139C296.609 511.904 296.551 511.693 296.434 511.504C296.316 511.309 296.092 511.133 295.76 510.977C295.434 510.82 294.952 510.677 294.314 510.547C293.755 510.423 293.24 510.277 292.771 510.107C292.309 509.932 291.912 509.72 291.58 509.473C291.248 509.225 290.991 508.932 290.809 508.594C290.626 508.255 290.535 507.865 290.535 507.422C290.535 506.992 290.63 506.585 290.818 506.201C291.007 505.817 291.277 505.479 291.629 505.186C291.98 504.893 292.407 504.661 292.908 504.492C293.416 504.323 293.982 504.238 294.607 504.238C295.493 504.238 296.251 504.388 296.883 504.688C297.521 504.98 298.009 505.381 298.348 505.889C298.686 506.39 298.855 506.956 298.855 507.588H296.502C296.502 507.308 296.43 507.048 296.287 506.807C296.15 506.559 295.942 506.361 295.662 506.211C295.382 506.055 295.031 505.977 294.607 505.977C294.204 505.977 293.868 506.042 293.602 506.172C293.341 506.296 293.146 506.458 293.016 506.66C292.892 506.862 292.83 507.083 292.83 507.324C292.83 507.5 292.863 507.66 292.928 507.803C292.999 507.939 293.117 508.066 293.279 508.184C293.442 508.294 293.663 508.398 293.943 508.496C294.23 508.594 294.588 508.688 295.018 508.779C295.825 508.949 296.518 509.167 297.098 509.434C297.684 509.694 298.133 510.033 298.445 510.449C298.758 510.859 298.914 511.38 298.914 512.012C298.914 512.48 298.813 512.91 298.611 513.301C298.416 513.685 298.13 514.02 297.752 514.307C297.374 514.587 296.922 514.805 296.395 514.961C295.874 515.117 295.288 515.195 294.637 515.195C293.68 515.195 292.869 515.026 292.205 514.688C291.541 514.342 291.036 513.903 290.691 513.369C290.353 512.829 290.184 512.269 290.184 511.689H292.459C292.485 512.126 292.605 512.474 292.82 512.734C293.042 512.988 293.315 513.174 293.641 513.291C293.973 513.402 294.314 513.457 294.666 513.457C295.089 513.457 295.444 513.402 295.73 513.291C296.017 513.174 296.235 513.018 296.385 512.822C296.535 512.62 296.609 512.393 296.609 512.139ZM303.689 500.781L303.455 510.811H301.443L301.199 500.781H303.689ZM301.131 513.887C301.131 513.529 301.248 513.229 301.482 512.988C301.723 512.741 302.055 512.617 302.479 512.617C302.895 512.617 303.224 512.741 303.465 512.988C303.706 513.229 303.826 513.529 303.826 513.887C303.826 514.232 303.706 514.528 303.465 514.775C303.224 515.016 302.895 515.137 302.479 515.137C302.055 515.137 301.723 515.016 301.482 514.775C301.248 514.528 301.131 514.232 301.131 513.887Z" fill="white"/>
<defs>
<linearGradient id="paint0_linear_1_2" x1="215" y1="0" x2="215" y2="932" gradientUnits="userSpaceOnUse">
<stop stop-color="#0172B2"/>
<stop offset="1" stop-color="#001645"/>
</linearGradient>
</defs>
</svg>
